<?xml version="1.0" encoding="UTF-8" standalone="no"?>
<svg
   sodipodi:docname="Icon.svg"
   inkscape:version="1.1.1 (3bf5ae0d25, 2021-09-20)"
   id="svg8"
   version="1.1"
   viewBox="0 0 256 256"
   height="256"
   width="256"
   inkscape:export-filename="G:\Root Language\Icon.png"
   inkscape:export-xdpi="96"
   inkscape:export-ydpi="96"
   xmlns:inkscape="http://www.inkscape.org/namespaces/inkscape"
   xmlns:sodipodi="http://sodipodi.sourceforge.net/DTD/sodipodi-0.dtd"
   xmlns:xlink="http://www.w3.org/1999/xlink"
   xmlns="http://www.w3.org/2000/svg"
   xmlns:svg="http://www.w3.org/2000/svg"
   xmlns:rdf="http://www.w3.org/1999/02/22-rdf-syntax-ns#"
   xmlns:cc="http://creativecommons.org/ns#"
   xmlns:dc="http://purl.org/dc/elements/1.1/">
  <defs
     id="defs2">
    <inkscape:path-effect
       effect="powermask"
       id="path-effect6581"
       is_visible="true"
       lpeversion="1"
       uri="#mask-powermask-path-effect6581"
       invert="false"
       hide_mask="false"
       background="false"
       background_color="#ffffffff" />
    <linearGradient
       inkscape:collect="always"
       id="linearGradient4706">
      <stop
         style="stop-color:#ff3f3f;stop-opacity:1"
         offset="0"
         id="stop4702" />
      <stop
         style="stop-color:#bf0000;stop-opacity:1"
         offset="1"
         id="stop4704" />
    </linearGradient>
    <inkscape:path-effect
       end_linecap_type="butt"
       miter_limit="4"
       linejoin_type="extrp_arc"
       start_linecap_type="butt"
       interpolator_beta="0.2"
       interpolator_type="CubicBezierFit"
       sort_points="true"
       offset_points="2,0.5"
       is_visible="true"
       id="path-effect1492"
       effect="powerstroke"
       lpeversion="0"
       not_jump="false"
       scale_width="1" />
    <clipPath
       id="clipPath1421"
       clipPathUnits="userSpaceOnUse">
      <path
         sodipodi:nodetypes="ccccccc"
         inkscape:connector-curvature="0"
         style="fill:#000000;fill-opacity:1;stroke:none;stroke-width:1px;stroke-linecap:butt;stroke-linejoin:miter;stroke-opacity:1"
         d="m 95.861328,192 v 8 l -8,4 H 136 l -7.86133,-4 v -8 z"
         id="path1423" />
    </clipPath>
    <clipPath
       id="clipPath1350"
       clipPathUnits="userSpaceOnUse">
      <rect
         style="opacity:1;fill:#000000;fill-opacity:1;stroke:none;stroke-width:1.88562;stroke-linecap:round;stroke-linejoin:round;stroke-miterlimit:4;stroke-dasharray:none;stroke-opacity:1;paint-order:stroke fill markers"
         id="rect1352"
         width="128"
         height="80"
         x="48"
         y="387.99997"
         rx="4.0000105"
         ry="4.0000105" />
    </clipPath>
    <clipPath
       id="clipPath1256"
       clipPathUnits="userSpaceOnUse">
      <rect
         style="opacity:1;fill:#000000;fill-opacity:1;stroke:none;stroke-width:1.88562;stroke-linecap:round;stroke-linejoin:round;stroke-miterlimit:4;stroke-dasharray:none;stroke-opacity:1;paint-order:stroke fill markers"
         id="rect1258"
         width="128"
         height="80"
         x="48"
         y="387.99997"
         rx="4.0000105"
         ry="4.0000105" />
    </clipPath>
    <clipPath
       id="clipPath1350-7"
       clipPathUnits="userSpaceOnUse">
      <rect
         style="opacity:1;fill:#000000;fill-opacity:1;stroke:none;stroke-width:1.88562;stroke-linecap:round;stroke-linejoin:round;stroke-miterlimit:4;stroke-dasharray:none;stroke-opacity:1;paint-order:stroke fill markers"
         id="rect1352-6"
         width="128"
         height="80"
         x="48"
         y="387.99997"
         rx="4.0000105"
         ry="4.0000105" />
    </clipPath>
    <clipPath
       id="clipPath1256-2"
       clipPathUnits="userSpaceOnUse">
      <rect
         style="opacity:1;fill:#000000;fill-opacity:1;stroke:none;stroke-width:1.88562;stroke-linecap:round;stroke-linejoin:round;stroke-miterlimit:4;stroke-dasharray:none;stroke-opacity:1;paint-order:stroke fill markers"
         id="rect1258-3"
         width="128"
         height="80"
         x="48"
         y="387.99997"
         rx="4.0000105"
         ry="4.0000105" />
    </clipPath>
    <clipPath
       id="clipPath1421-2"
       clipPathUnits="userSpaceOnUse">
      <path
         sodipodi:nodetypes="ccccccc"
         inkscape:connector-curvature="0"
         style="fill:#000000;fill-opacity:1;stroke:none;stroke-width:1px;stroke-linecap:butt;stroke-linejoin:miter;stroke-opacity:1"
         d="m 95.861328,192 v 8 l -8,4 H 136 l -7.86133,-4 v -8 z"
         id="path1423-7" />
    </clipPath>
    <linearGradient
       id="linearGradient3030"
       inkscape:collect="always">
      <stop
         id="stop3026"
         offset="0"
         style="stop-color:#000000;stop-opacity:1;" />
      <stop
         id="stop3028"
         offset="1"
         style="stop-color:#000000;stop-opacity:0;" />
    </linearGradient>
    <clipPath
       id="clipPath3235"
       clipPathUnits="userSpaceOnUse">
      <path
         inkscape:connector-curvature="0"
         style="fill:#000000;fill-opacity:1;stroke:none;stroke-width:1px;stroke-linecap:butt;stroke-linejoin:miter;stroke-opacity:1"
         d="m 516,1264 -3.10156,10.8574 -9.86914,-5.4844 -5.65625,5.6563 5.48437,9.8691 L 492,1288 v 8 l 10.85742,3.1016 -5.48437,9.8691 5.65625,5.6563 9.86914,-5.4844 L 516,1320 h 8 l 3.10156,-10.8574 9.86914,5.4844 5.65625,-5.6563 -5.48437,-9.8691 L 548,1296 v -8 l -10.85742,-3.1016 5.48437,-9.8691 -5.65625,-5.6563 -9.86914,5.4844 L 524,1264 Z m 4,20 a 8,8 0 0 1 8,8 8,8 0 0 1 -8,8 8,8 0 0 1 -8,-8 8,8 0 0 1 8,-8 z"
         id="path3237" />
    </clipPath>
    <pattern
       id="EMFhbasepattern"
       patternUnits="userSpaceOnUse"
       width="6"
       height="6"
       x="0"
       y="0" />
    <clipPath
       clipPathUnits="userSpaceOnUse"
       id="clipPath4371">
      <path
         style="opacity:1;fill:#000000;fill-opacity:1;stroke:none;stroke-width:2;stroke-linecap:round;stroke-linejoin:round;stroke-miterlimit:4;stroke-dasharray:none;stroke-opacity:0.25;paint-order:stroke fill markers"
         d="m 96,1164 a 32,31.999958 0 0 0 -32,32 32,31.999958 0 0 0 32,32 31.999916,31.999916 0 0 1 24.0312,-30.9688 39.99997,39.999916 0 0 1 0,-1.0312 39.99997,39.999916 0 0 1 3.5,-16.2968 A 32,31.999958 0 0 0 96,1164 Z m 64,0 a 32,31.999958 0 0 0 -32,32 31.999916,31.999916 0 0 1 30.9688,24.0312 39.99997,39.999916 0 0 1 1.0312,0 39.99997,39.999916 0 0 1 16.2968,3.5 32,31.999958 0 0 0 15.7032,-27.5 32,31.999958 0 0 0 -32,-32 z m -32,40 a 23.999916,23.999916 0 0 0 -24,24 23.999916,23.999916 0 0 0 24,24 23.999916,23.999916 0 0 0 24,-24 23.999916,23.999916 0 0 0 -24,-24 z m 32,24 a 31.999916,31.999916 0 0 1 -24.0312,30.9688 39.99997,39.999916 0 0 1 0,1.0312 39.99997,39.999916 0 0 1 -3.5,16.2968 32,31.999958 0 0 0 27.5,15.7032 32,31.999958 0 0 0 32,-32 32,31.999958 0 0 0 -32,-32 z m -80.2968,4.5 A 32,31.999958 0 0 0 64,1260 a 32,31.999958 0 0 0 32,32 32,31.999958 0 0 0 32,-32 31.999916,31.999916 0 0 1 -30.9688,-24.0312 39.99997,39.999916 0 0 1 -1.0312,0 39.99997,39.999916 0 0 1 -16.2968,-3.5 z"
         id="path4373"
         inkscape:connector-curvature="0" />
    </clipPath>
    <linearGradient
       inkscape:collect="always"
       xlink:href="#linearGradient4706"
       id="linearGradient2084"
       x1="448"
       y1="-68"
       x2="448.00003"
       y2="156"
       gradientUnits="userSpaceOnUse"
       gradientTransform="translate(-320)" />
    <radialGradient
       gradientUnits="userSpaceOnUse"
       gradientTransform="matrix(4,0,0,0.57142856,-1920,-551.57161)"
       r="28"
       fy="1240"
       fx="512"
       cy="1240"
       cx="512"
       id="radialGradient3032-6-9-5"
       xlink:href="#linearGradient3030"
       inkscape:collect="always" />
    <linearGradient
       inkscape:collect="always"
       id="linearGradient915">
      <stop
         style="stop-color:#ffffff;stop-opacity:1;"
         offset="0"
         id="stop911" />
      <stop
         style="stop-color:#ffffff;stop-opacity:0;"
         offset="1"
         id="stop913" />
    </linearGradient>
    <clipPath
       clipPathUnits="userSpaceOnUse"
       id="clipPath907">
      <rect
         ry="4"
         rx="4"
         y="1296"
         x="4"
         height="56"
         width="56"
         id="rect909"
         style="opacity:1;fill:#000000;fill-opacity:1;stroke:none;stroke-width:2;stroke-linecap:butt;stroke-linejoin:miter;stroke-miterlimit:4;stroke-dasharray:none;stroke-opacity:0.25;paint-order:stroke fill markers" />
    </clipPath>
    <clipPath
       clipPathUnits="userSpaceOnUse"
       id="clipPath1354">
      <rect
         style="fill:#000000;fill-opacity:1;stroke:none;stroke-width:2;stroke-linecap:square;stroke-linejoin:round;stroke-miterlimit:4;stroke-dasharray:none;stroke-opacity:0.25;paint-order:stroke fill markers"
         id="rect1356"
         width="224"
         height="224"
         x="16"
         y="-68"
         rx="16"
         ry="16" />
    </clipPath>
    <linearGradient
       inkscape:collect="always"
       xlink:href="#linearGradient915"
       id="linearGradient1364"
       x1="128.00002"
       y1="-68"
       x2="128.00002"
       y2="156"
       gradientUnits="userSpaceOnUse" />
    <clipPath
       clipPathUnits="userSpaceOnUse"
       id="clipPath887">
      <rect
         style="opacity:1;fill:#000000;fill-opacity:1;stroke:none;stroke-width:8;stroke-linecap:round;stroke-linejoin:round;stroke-opacity:0"
         id="rect889"
         width="16"
         height="24"
         x="256"
         y="104" />
    </clipPath>
    <mask
       maskUnits="userSpaceOnUse"
       id="mask-powermask-path-effect6581">
      <path
         style="fill:#000000;fill-opacity:1;stroke:none;stroke-width:1px;stroke-linecap:butt;stroke-linejoin:miter;stroke-opacity:1"
         d="M 304,12 H 816 V 44 Z"
         id="path6579"
         sodipodi:nodetypes="cccc" />
    </mask>
  </defs>
  <sodipodi:namedview
     inkscape:pagecheckerboard="true"
     inkscape:document-rotation="0"
     inkscape:snap-tangential="true"
     inkscape:snap-page="true"
     inkscape:snap-text-baseline="true"
     inkscape:snap-center="true"
     inkscape:snap-object-midpoints="true"
     inkscape:snap-midpoints="true"
     inkscape:snap-smooth-nodes="true"
     inkscape:snap-intersection-paths="true"
     inkscape:object-paths="true"
     inkscape:snap-bbox-midpoints="true"
     inkscape:snap-bbox-edge-midpoints="true"
     inkscape:bbox-nodes="true"
     inkscape:bbox-paths="true"
     inkscape:snap-bbox="true"
     inkscape:window-maximized="1"
     inkscape:window-y="-8"
     inkscape:window-x="-8"
     inkscape:window-height="716"
     inkscape:window-width="1366"
     units="px"
     showgrid="false"
     inkscape:current-layer="layer1"
     inkscape:document-units="px"
     inkscape:cy="98"
     inkscape:cx="-13"
     inkscape:zoom="0.5"
     inkscape:pageshadow="2"
     inkscape:pageopacity="0"
     borderopacity="1"
     bordercolor="#000000"
     pagecolor="#ffffff"
     id="base"
     width="256px">
    <inkscape:grid
       empspacing="4"
       id="grid3713"
       type="xygrid" />
  </sodipodi:namedview>
  <metadata
     id="metadata5">
    <rdf:RDF>
      <cc:Work
         rdf:about="">
        <dc:format>image/svg+xml</dc:format>
        <dc:type
           rdf:resource="http://purl.org/dc/dcmitype/StillImage" />
      </cc:Work>
    </rdf:RDF>
  </metadata>
  <g
     transform="translate(0,84)"
     id="layer1"
     inkscape:groupmode="layer"
     inkscape:label="Layer 1">
    <ellipse
       ry="16"
       rx="112"
       cy="157"
       cx="128"
       id="path3024-7-0-4"
       style="opacity:0.25;fill:url(#radialGradient3032-6-9-5);fill-opacity:1;stroke:none;stroke-width:8;stroke-linecap:round;stroke-linejoin:round;stroke-miterlimit:4;stroke-dasharray:none;stroke-opacity:1;paint-order:stroke fill markers" />
    <rect
       style="fill:url(#linearGradient2084);fill-opacity:1;stroke:#000000;stroke-width:2;stroke-linecap:square;stroke-linejoin:round;stroke-miterlimit:4;stroke-dasharray:none;stroke-opacity:0.25;paint-order:stroke fill markers"
       id="rect1722"
       width="224"
       height="224"
       x="16"
       y="-68"
       rx="16"
       ry="16" />
    <path
       style="opacity:0.25;fill:none;stroke:#000000;stroke-width:18;stroke-linecap:square;stroke-linejoin:round;stroke-miterlimit:4;stroke-dasharray:none;stroke-opacity:1"
       d="M 200,4 H 136 L 96,84 72,36 56,44"
       id="path9036"
       sodipodi:nodetypes="ccccc" />
    <path
       style="fill:none;stroke:#ffffff;stroke-width:16;stroke-linecap:square;stroke-linejoin:round;stroke-miterlimit:4;stroke-dasharray:none;stroke-opacity:1"
       d="M 200,4 H 136 L 96,84 72,36 56,44"
       id="path157"
       sodipodi:nodetypes="ccccc" />
    <rect
       style="opacity:0.25;fill:none;fill-opacity:1;stroke:url(#linearGradient1364);stroke-width:2;stroke-linecap:square;stroke-linejoin:round;stroke-miterlimit:4;stroke-dasharray:none;stroke-opacity:1;paint-order:normal"
       id="rect1026"
       width="224"
       height="224"
       x="16"
       y="-68"
       rx="16"
       ry="16"
       clip-path="url(#clipPath1354)" />
  </g>
</svg>
